<svg width="909" height="280" viewBox="0 0 909 280" fill="none" xmlns="http://www.w3.org/2000/svg">
<g style="mix-blend-mode:difference">
<path d="M49.9827 14.4711C56.6233 14.4711 62.9709 15.8383 69.0256 18.5727C75.0803 21.1118 80.3538 24.6274 84.8459 29.1196C89.3381 33.4164 92.8538 38.5922 95.3928 44.6469C98.1272 50.7016 99.4944 57.0493 99.4944 63.6899C99.4944 70.5258 98.1272 76.9711 95.3928 83.0258C92.8538 89.0805 89.3381 94.2563 84.8459 98.5532C80.3538 103.045 75.0803 106.561 69.0256 109.1C62.9709 111.639 56.6233 112.909 49.9827 112.909C43.1467 112.909 36.7014 111.639 30.6467 109.1C24.592 106.561 19.4163 103.045 15.1194 98.5532C10.6272 94.2563 7.11157 89.0805 4.57251 83.0258C2.03345 76.9711 0.763916 70.5258 0.763916 63.6899C0.763916 57.0493 2.03345 50.7016 4.57251 44.6469C7.11157 38.5922 10.6272 33.4164 15.1194 29.1196C19.4163 24.6274 24.592 21.1118 30.6467 18.5727C36.7014 15.8383 43.1467 14.4711 49.9827 14.4711ZM49.9827 36.7368C42.7561 36.7368 36.6038 39.3735 31.5256 44.6469C26.4475 49.9203 23.9084 56.268 23.9084 63.6899C23.9084 71.3071 26.4475 77.7524 31.5256 83.0258C36.6038 88.1039 42.7561 90.643 49.9827 90.643C57.2092 90.643 63.3616 88.1039 68.4397 83.0258C73.5178 77.7524 76.0569 71.3071 76.0569 63.6899C76.0569 56.268 73.5178 49.9203 68.4397 44.6469C63.3616 39.3735 57.2092 36.7368 49.9827 36.7368ZM122.932 0.115662H146.369V189.373H122.932V0.115662ZM223.127 10.0766L270.295 106.463L249.494 115.838L223.127 56.9516L196.76 115.545L175.959 106.463L223.127 10.0766ZM352.033 81.268H319.807V183.514C330.354 186.053 339.24 191.815 346.467 200.799C353.889 209.588 357.6 219.647 357.6 230.975C357.6 237.811 356.233 244.159 353.498 250.018C350.959 256.073 347.541 261.248 343.244 265.545C338.752 270.038 333.479 273.553 327.424 276.092C321.565 278.631 315.315 279.901 308.674 279.901C301.838 279.901 295.49 278.631 289.631 276.092C283.772 273.553 278.596 270.038 274.104 265.545C269.807 261.248 266.389 256.073 263.85 250.018C261.311 244.159 260.041 237.811 260.041 230.975C260.041 219.842 263.459 209.979 270.295 201.385C277.131 192.596 285.823 186.834 296.369 184.1V0.115662H319.807V58.4164H352.033V81.268ZM308.674 204.315C301.448 204.315 295.295 206.952 290.217 212.225C285.334 217.303 282.893 223.553 282.893 230.975C282.893 238.397 285.334 244.647 290.217 249.725C295.295 254.998 301.448 257.635 308.674 257.635C315.705 257.635 321.76 254.998 326.838 249.725C332.112 244.647 334.748 238.397 334.748 230.975C334.748 223.553 332.112 217.303 326.838 212.225C321.76 206.952 315.705 204.315 308.674 204.315ZM404.475 153.631H429.084L398.615 208.123H383.381L404.475 153.631ZM556.233 178.827V21.7953H578.498V178.827H556.233ZM703.303 71.893C703.303 76.5805 702.912 80.975 702.131 85.0766C701.545 88.9828 700.178 94.7446 698.03 102.362C696.858 106.268 695.49 110.76 693.928 115.838C692.561 120.916 690.901 126.776 688.948 133.416C686.799 140.057 684.358 147.479 681.623 155.682C679.084 163.69 676.155 172.674 672.834 182.635L652.326 176.19L670.198 121.405C669.416 121.6 668.44 121.795 667.268 121.991C666.096 121.991 664.729 121.991 663.166 121.991C657.307 121.991 651.936 120.916 647.053 118.768C642.365 116.62 638.069 113.202 634.162 108.514C630.061 104.022 627.033 98.9438 625.08 93.2797C623.127 87.6157 622.151 81.3657 622.151 74.5297C621.955 67.3032 622.737 60.6625 624.494 54.6078C626.252 48.3578 628.987 42.6938 632.698 37.6157C636.213 32.5375 640.412 28.7289 645.295 26.1899C650.373 23.6508 656.135 22.3813 662.58 22.3813C669.026 22.3813 674.69 23.6508 679.573 26.1899C684.651 28.5336 688.948 32.0493 692.463 36.7368C695.979 41.6196 698.615 46.9907 700.373 52.85C702.326 58.7094 703.303 65.0571 703.303 71.893ZM644.123 71.893C644.123 78.5336 646.076 84.0024 649.983 88.2993C653.889 92.5961 658.186 94.7446 662.873 94.7446C668.147 94.7446 672.737 92.5961 676.643 88.2993C680.549 84.0024 682.502 78.5336 682.502 71.893C682.502 66.0336 680.647 60.7602 676.936 56.0727C673.42 51.1899 668.733 48.7485 662.873 48.7485C657.405 48.7485 652.912 51.1899 649.397 56.0727C645.881 60.7602 644.123 66.0336 644.123 71.893ZM799.983 133.416C799.787 140.448 798.615 146.795 796.467 152.459C794.319 157.928 791.194 162.713 787.092 166.815C782.99 171.112 777.326 174.334 770.1 176.483C762.873 178.631 754.182 179.706 744.026 179.706H733.772V156.561H745.198C755.549 156.561 763.264 154.608 768.342 150.702C773.42 146.6 775.959 140.643 775.959 132.831C775.959 129.315 775.373 126.19 774.201 123.456C773.225 120.721 771.662 118.377 769.514 116.424C767.365 114.471 763.948 113.006 759.26 112.03C754.573 110.858 748.615 110.272 741.389 110.272H737.58V87.7133H741.389C747.834 87.7133 753.108 87.1274 757.209 85.9555C761.311 84.7836 764.338 82.9282 766.291 80.3891C768.049 78.0453 769.416 75.5063 770.393 72.7719C771.369 69.8422 771.858 66.9125 771.858 63.9828C771.858 58.7094 769.709 54.3149 765.412 50.7993C761.311 47.0883 753.987 45.2328 743.44 45.2328H736.701V22.0883H744.612C762.58 22.0883 775.373 25.4086 782.99 32.0493C790.608 38.6899 794.709 49.0414 795.295 63.1039C794.709 71.893 793.635 78.7289 792.073 83.6118C790.51 88.2993 787.092 92.9868 781.819 97.6743C787.483 100.604 791.78 104.608 794.709 109.686C797.639 114.569 799.397 122.479 799.983 133.416ZM831.916 101.483V22.0883H854.475V101.483C854.475 107.928 855.94 112.811 858.869 116.131C861.994 119.452 866.584 121.307 872.639 121.698H886.408V49.3344H908.967V179.706H886.408V145.721H872.053C858.967 145.721 849.006 142.206 842.17 135.174C835.334 127.948 831.916 116.717 831.916 101.483Z" fill="white"/>
</g>
</svg>
