<svg width="417" height="281" viewBox="0 0 417 281" fill="none" xmlns="http://www.w3.org/2000/svg">
<g style="mix-blend-mode:difference">
<path d="M49.8672 14.4711C56.5078 14.4711 62.8555 15.8383 68.9102 18.5727C74.9648 21.1118 80.2383 24.6274 84.7305 29.1196C89.2227 33.4164 92.7383 38.5922 95.2773 44.6469C98.0117 50.7016 99.3789 57.0493 99.3789 63.6899C99.3789 75.4086 95.7656 85.6625 88.5391 94.4516C81.5078 103.241 72.7188 108.905 62.1719 111.444V140.155H97.3281V162.713H3.57812V140.155H38.7344V111.737C27.6016 109.393 18.4219 103.729 11.1953 94.7446C4.16406 85.7602 0.648438 75.4086 0.648438 63.6899C0.648438 57.0493 1.91797 50.7016 4.45703 44.6469C6.99609 38.5922 10.5117 33.4164 15.0039 29.1196C19.3008 24.6274 24.4766 21.1118 30.5312 18.5727C36.5859 15.8383 43.0312 14.4711 49.8672 14.4711ZM49.8672 36.7368C42.6406 36.7368 36.4883 39.3735 31.4102 44.6469C26.332 49.9203 23.793 56.268 23.793 63.6899C23.793 71.3071 26.332 77.7524 31.4102 83.0258C36.4883 88.1039 42.6406 90.643 49.8672 90.643C57.0938 90.643 63.2461 88.1039 68.3242 83.0258C73.4023 77.7524 75.9414 71.3071 75.9414 63.6899C75.9414 56.268 73.4023 49.9203 68.3242 44.6469C63.2461 39.3735 57.0938 36.7368 49.8672 36.7368ZM128.969 13.8852H211V113.495H187.562V36.7368H128.969V13.8852ZM298.891 81.268H266.664V181.17H295.961V280.78H213.93V181.17H243.227V0.115662H266.664V58.4164H298.891V81.268ZM237.367 204.022V257.928H272.523V204.022H237.367ZM327.895 13.8852H409.34V36.7368H351.332V90.643H409.926V113.495H381.215V140.155H416.371V162.713H322.621V140.155H357.777V113.495H327.895V13.8852Z" fill="white"/>
</g>
</svg>
